<?xml version="1.0" encoding="utf-8"?>
<!-- Generator: Adobe Illustrator 27.5.0, SVG Export Plug-In . SVG Version: 6.00 Build 0)  -->
<svg version="1.1" xmlns="http://www.w3.org/2000/svg" xmlns:xlink="http://www.w3.org/1999/xlink" x="0px" y="0px"
	 viewBox="0 0 500 500" style="enable-background:new 0 0 500 500;" xml:space="preserve">
<g id="Background_Complete">
	<g>
		<rect y="382.398" style="fill:#EBEBEB;" width="500" height="0.25"/>
		<rect x="416.779" y="398.494" style="fill:#EBEBEB;" width="33.122" height="0.25"/>
		<rect x="333.381" y="398.494" style="fill:#EBEBEB;" width="70.806" height="0.25"/>
		<rect x="275.141" y="389.208" style="fill:#EBEBEB;" width="19.192" height="0.25"/>
		<rect x="52.459" y="390.888" style="fill:#EBEBEB;" width="34.29" height="0.25"/>
		<rect x="95.652" y="390.888" style="fill:#EBEBEB;" width="62.348" height="0.25"/>
		<rect x="188.333" y="395.111" style="fill:#EBEBEB;" width="36.814" height="0.25"/>
		<path style="fill:#EBEBEB;" d="M237.014,337.8H43.915c-3.147,0-5.708-2.561-5.708-5.708V60.66c0-3.147,2.561-5.708,5.708-5.708
			h193.099c3.146,0,5.707,2.561,5.707,5.708v271.432C242.721,335.239,240.16,337.8,237.014,337.8z M43.915,55.203
			c-3.01,0-5.458,2.448-5.458,5.458v271.432c0,3.01,2.448,5.458,5.458,5.458h193.099c3.009,0,5.457-2.448,5.457-5.458V60.66
			c0-3.009-2.448-5.458-5.457-5.458H43.915z"/>
		<path style="fill:#EBEBEB;" d="M453.31,337.8H260.212c-3.147,0-5.707-2.561-5.707-5.708V60.66c0-3.147,2.561-5.708,5.707-5.708
			H453.31c3.148,0,5.708,2.561,5.708,5.708v271.432C459.019,335.239,456.458,337.8,453.31,337.8z M260.212,55.203
			c-3.009,0-5.457,2.448-5.457,5.458v271.432c0,3.01,2.448,5.458,5.457,5.458H453.31c3.01,0,5.458-2.448,5.458-5.458V60.66
			c0-3.009-2.448-5.458-5.458-5.458H260.212z"/>
	</g>
	<g>
		<g>
			<g>
				<g>
					
						<rect x="75.833" y="75.651" transform="matrix(-1 -1.224647e-16 1.224647e-16 -1 287.3658 268.8733)" style="fill:#E6E6E6;" width="135.699" height="117.571"/>
					
						<rect x="72.818" y="75.651" transform="matrix(-1 -1.224647e-16 1.224647e-16 -1 281.3346 268.8733)" style="fill:#F5F5F5;" width="135.699" height="117.571"/>
					
						<rect x="86.083" y="72" transform="matrix(-1.836970e-16 1 -1 -1.836970e-16 275.1041 -6.2306)" style="fill:#FAFAFA;" width="109.168" height="124.873"/>
					<polygon style="fill:#FFFFFF;" points="153.021,189.021 175.645,79.853 128.314,79.853 105.689,189.021 					"/>
					
						<rect x="24.787" y="133.297" transform="matrix(-1.836970e-16 1 -1 -1.836970e-16 213.8073 55.0661)" style="fill:#E6E6E6;" width="109.168" height="2.28"/>
					
						<rect x="75.057" y="163.805" transform="matrix(-1 -1.224647e-16 1.224647e-16 -1 281.3346 333.2504)" style="fill:#F5F5F5;" width="131.221" height="5.641"/>
				</g>
			</g>
		</g>
		<g>
			
				<rect x="205.246" y="282.472" transform="matrix(-1 -1.224647e-16 1.224647e-16 -1 432.1603 658.9158)" style="fill:#F0F0F0;" width="21.668" height="93.972"/>
			
				<rect x="63.723" y="376.444" transform="matrix(-1 -1.224647e-16 1.224647e-16 -1 286.4765 758.8425)" style="fill:#F0F0F0;" width="159.031" height="5.954"/>
			<rect x="59.563" y="282.472" style="fill:#F5F5F5;" width="145.684" height="93.972"/>
			<rect x="68.081" y="294.038" style="fill:#F0F0F0;" width="128.646" height="30.819"/>
			<rect x="68.081" y="334.057" style="fill:#F0F0F0;" width="128.646" height="30.819"/>
			<path style="fill:#F5F5F5;" d="M97.732,311.561h69.344c1.162,0,2.113-0.951,2.113-2.113l0,0c0-1.162-0.951-2.113-2.113-2.113
				H97.732c-1.162,0-2.113,0.951-2.113,2.113l0,0C95.619,310.61,96.57,311.561,97.732,311.561z"/>
			<path style="fill:#F5F5F5;" d="M97.732,351.58h69.344c1.162,0,2.113-0.951,2.113-2.113l0,0c0-1.162-0.951-2.113-2.113-2.113
				H97.732c-1.162,0-2.113,0.951-2.113,2.113l0,0C95.619,350.629,96.57,351.58,97.732,351.58z"/>
		</g>
		<g>
			<path style="fill:#EBEBEB;" d="M431.624,137.102c12.34-3.401,16.561-25.789-14.624-34.928
				C423.878,124.689,410.109,143.032,431.624,137.102z"/>
			<path style="fill:#E0E0E0;" d="M434.353,146.821c9.724-10.514,0.526-34.287-34.512-24.575
				C419.665,139.591,417.399,165.152,434.353,146.821z"/>
			<path style="fill:#FAFAFA;" d="M424.749,149.517c-8.143-8.061,3.52-36.108,30.4-23.11
				C439.917,140.97,438.946,163.57,424.749,149.517z"/>
			<g>
				<polygon style="fill:#E6E6E6;" points="416.634,165.222 440.323,165.222 442.111,149.194 414.846,149.194 				"/>
				<path style="fill:#E6E6E6;" d="M414.579,152.059h27.798c0.977,0,1.769-0.792,1.769-1.769l0,0c0-0.977-0.792-1.769-1.769-1.769
					h-27.798c-0.977,0-1.769,0.792-1.769,1.769l0,0C412.811,151.267,413.603,152.059,414.579,152.059z"/>
			</g>
		</g>
		<g>
			<polygon style="fill:#FAFAFA;" points="217.309,355.251 217.309,355.251 217.309,355.251 217.309,355.251 217.309,328.104 
				239.924,328.104 239.924,328.104 239.924,328.104 239.924,328.104 239.924,300.957 262.539,300.957 262.539,300.957 
				262.539,273.811 285.155,273.811 285.155,246.663 307.77,246.663 307.77,246.663 307.77,246.663 307.77,246.663 307.77,219.516 
				330.385,219.516 330.385,219.516 330.385,219.516 330.385,219.516 330.385,192.37 353,192.37 353,192.37 353,192.37 353,192.37 
				353,165.222 375.616,165.222 500,165.222 500,382.398 217.309,382.398 194.693,382.398 194.693,355.251 			"/>
			<polygon style="fill:#E0E0E0;" points="341.693,355.251 341.693,355.251 341.693,355.251 341.693,355.251 341.693,328.104 
				364.308,328.104 364.308,328.104 364.308,328.104 364.308,328.104 364.308,300.957 386.923,300.957 386.923,300.957 
				386.923,273.811 409.539,273.811 409.539,246.663 432.154,246.663 432.154,246.663 432.154,246.663 432.154,246.663 
				432.154,219.516 454.769,219.516 454.769,219.516 454.769,219.516 454.769,219.516 454.769,192.37 477.385,192.37 
				477.385,192.37 477.385,192.37 477.385,192.37 477.385,165.222 500,165.222 500,192.37 500,382.398 341.693,382.398 
				319.078,382.398 319.078,355.251 			"/>
			<g>
				<rect x="193.36" y="355.251" style="fill:#EBEBEB;" width="125.717" height="8.144"/>
				<rect x="215.976" y="328.104" style="fill:#EBEBEB;" width="125.717" height="8.144"/>
				<rect x="238.591" y="300.957" style="fill:#EBEBEB;" width="125.717" height="8.144"/>
				<rect x="261.206" y="273.81" style="fill:#EBEBEB;" width="125.717" height="8.144"/>
				<rect x="283.822" y="246.663" style="fill:#EBEBEB;" width="125.717" height="8.144"/>
				<rect x="306.437" y="219.516" style="fill:#EBEBEB;" width="125.717" height="8.144"/>
				<rect x="329.052" y="192.369" style="fill:#EBEBEB;" width="125.717" height="8.144"/>
				<rect x="351.668" y="165.222" style="fill:#EBEBEB;" width="125.717" height="8.144"/>
			</g>
		</g>
	</g>
</g>
<g id="Background_Simple" style="display:none;">
	<g style="display:inline;">
		<g>
			<path style="fill:#407BFF;" d="M434.095,140.222c-15.463-10.524-48.707-15.914-67.43-9.699
				c-23.907,7.935-23.061,25.357-40.462,36.133c-46.989,29.098-94.718,9.531-144.382-3.016
				C71.754,135.833,2.81,241.738,110.92,306.846c64.985,39.137,201.505,67.722,216.873-36.019
				c6.643-44.839-17.344-48.251,38.398-58.021C388.186,208.95,504.133,187.89,434.095,140.222z"/>
		</g>
		<path style="opacity:0.9;fill:#FFFFFF;" d="M434.095,140.222c-15.463-10.524-48.707-15.914-67.43-9.699
			c-23.907,7.935-23.061,25.357-40.462,36.133c-46.989,29.098-94.718,9.531-144.382-3.016
			C71.754,135.833,2.81,241.738,110.92,306.846c64.985,39.137,201.505,67.722,216.873-36.019
			c6.643-44.839-17.344-48.251,38.398-58.021C388.186,208.95,504.133,187.89,434.095,140.222z"/>
	</g>
</g>
<g id="Shadow_1_">
	<ellipse id="_x3C_Path_x3E__61_" style="fill:#F5F5F5;" cx="250" cy="416.238" rx="193.889" ry="11.323"/>
</g>
<g id="Character_1_">
	<g>
		<path style="fill:#FFC3BD;" d="M334.695,158.626c-0.172,2.997-0.523,5.752-0.914,8.604c-0.393,2.829-0.921,5.636-1.525,8.436
			c-1.181,5.601-2.808,11.157-5.049,16.573l-0.903,2.017l-0.226,0.503l-0.113,0.251c-0.037,0.082-0.066,0.153-0.154,0.321
			c-0.282,0.563-0.643,1.156-1.154,1.734c-0.513,0.571-1.156,1.126-1.914,1.512c-0.74,0.386-1.557,0.64-2.285,0.718
			c-1.485,0.176-2.647-0.086-3.631-0.377c-1.932-0.632-3.325-1.504-4.639-2.394c-1.292-0.908-2.448-1.867-3.555-2.85
			c-4.345-3.999-7.965-8.281-11.299-12.936l3.319-2.805c1.948,1.848,3.981,3.714,6.012,5.487c2.023,1.789,4.117,3.483,6.224,4.998
			c1.049,0.756,2.112,1.462,3.157,2.044c1.024,0.583,2.087,1.06,2.821,1.204c0.347,0.072,0.585,0.03,0.476,0.006
			c-0.099-0.045-0.544,0.163-0.637,0.282c-0.059,0.052-0.06,0.047-0.044-0.014l0.321-0.835l0.699-1.817
			c1.735-4.929,3.044-10.1,4.053-15.357c0.525-2.624,0.897-5.287,1.294-7.942c0.379-2.633,0.683-5.383,0.913-7.912L334.695,158.626z
			"/>
		<path style="fill:#407BFF;" d="M328.638,147.622c-3.727,0.949-6.334,16.285-6.334,16.285l10.27,6.984
			c0,0,9.847-15.472,6.98-19.569C336.568,147.055,334.076,146.237,328.638,147.622z"/>
		<g>
			<path style="fill:#407BFF;" d="M328.638,147.622c-3.727,0.949-6.334,16.285-6.334,16.285l10.27,6.984
				c0,0,9.847-15.472,6.98-19.569C336.568,147.055,334.076,146.237,328.638,147.622z"/>
			<path style="opacity:0.4;" d="M328.638,147.622c-3.727,0.949-6.334,16.285-6.334,16.285l10.27,6.984
				c0,0,9.847-15.472,6.98-19.569C336.568,147.055,334.076,146.237,328.638,147.622z"/>
		</g>
		<polygon style="opacity:0.3;" points="328.974,151.047 326.111,166.505 331.884,170.419 		"/>
		<path style="fill:#FFC3BD;" d="M300.846,177.285l-4.885-7.716l-2.77,8.768c0,0,4.007,4.202,7.63,3.2L300.846,177.285z"/>
		<polygon style="fill:#FFC3BD;" points="288.799,167.017 286.877,174.484 293.19,178.338 295.961,169.57 		"/>
		<polygon style="fill:#FFC3BD;" points="348.801,405.755 339.759,405.755 339.155,384.815 348.198,384.815 		"/>
		<polygon style="fill:#FFC3BD;" points="428.594,363.753 421.702,369.607 405.93,355.53 412.821,349.676 		"/>
		<path style="fill:#263238;" d="M419.813,368.905l6.684-7.65c0.243-0.278,0.634-0.335,0.94-0.137l6.814,4.417
			c0.707,0.458,0.829,1.517,0.257,2.15c-2.376,2.627-3.656,3.776-6.595,7.14c-1.808,2.07-4.235,5.281-6.732,8.14
			c-2.442,2.796-5.456,0.541-4.673-0.873c3.515-6.339,2.668-8.565,2.729-11.682C419.249,369.847,419.457,369.313,419.813,368.905z"
			/>
		<path style="fill:#263238;" d="M339.449,404.708l10.159,0c0.37,0,0.67,0.257,0.722,0.618l1.158,8.038
			c0.12,0.834-0.597,1.623-1.45,1.608c-3.542-0.061-5.249-0.269-9.716-0.269c-2.749,0-8.433,0.285-12.229,0.285
			c-3.712,0-3.998-3.753-2.417-4.093c7.086-1.524,9.875-3.626,12.262-5.631C338.368,404.903,338.908,404.708,339.449,404.708z"/>
		<g>
			<polygon style="opacity:0.2;" points="339.157,384.821 339.467,395.614 348.513,395.614 348.203,384.821 			"/>
			<polygon style="opacity:0.2;" points="412.827,349.678 405.933,355.534 414.066,362.788 420.961,356.931 			"/>
		</g>
		<g>
			<path style="fill:#407BFF;" d="M328.638,147.622c0,0-4.308,1.517,4.321,54.575c14.573,0,29.633,0,36.725,0
				c-0.616-14.947-0.634-24.163,6.51-54.837c0,0-7.695-1.674-15.595-2.055c-6.18-0.298-11.243-0.495-16.676,0.001
				C336.76,145.959,328.638,147.622,328.638,147.622z"/>
			<path style="opacity:0.4;" d="M328.638,147.622c0,0-4.308,1.517,4.321,54.575c14.573,0,29.633,0,36.725,0
				c-0.616-14.947-0.634-24.163,6.51-54.837c0,0-7.695-1.674-15.595-2.055c-6.18-0.298-11.243-0.495-16.676,0.001
				C336.76,145.959,328.638,147.622,328.638,147.622z"/>
		</g>
		<path style="fill:#FFFFFF;" d="M360.6,145.3c-6.18-0.29-11.24-0.49-16.68,0.01c-0.9,0.08-1.82,0.18-2.73,0.29
			c-0.61,1.05-1.07,2.46-0.5,3.9c1.17,2.91,5.39,3.25,8.47,3.25c11.37,0,13.29-6.64,13.37-6.92l0.11-0.4
			C361.96,145.38,361.28,145.33,360.6,145.3z"/>
		<path style="fill:#FFC3BD;" d="M358.947,126.528c-1.052,5.366-2.102,15.197,1.652,18.777c0,0-1.467,5.443-11.437,5.443
			c-10.963,0-5.239-5.442-5.239-5.442c5.983-1.429,5.829-5.868,4.787-10.037L358.947,126.528z"/>
		<path style="opacity:0.2;" d="M354.773,130.094l-6.059,5.17c0.25,0.987,0.445,1.987,0.514,2.96
			c2.286-0.33,5.426-2.839,5.668-5.233C355.018,131.797,354.968,130.65,354.773,130.094z"/>
		<path style="fill:#263238;" d="M352.714,97.347c-0.931-3.143-1.733-8.11,3.885-10.304c-2.186-2.679-2.721-7.72-0.035-10.715
			c2.686-2.994,6.798-1.888,6.798-1.888s1.199-7.31,10.088-6.03c8.889,1.279,4.93,7.164,4.93,7.164s12.133-2.403,12.943,9.026
			c0.81,11.429-6.155,10.019-6.155,10.019s5.411,4.537,2.415,9.527c-2.996,4.991-9.931,3.271-9.931,3.271s-3.26,8.817-10.938,3.8
			C359.036,106.201,352.714,97.347,352.714,97.347z"/>
		<path style="fill:#263238;" d="M334.697,103.983c-3.007,3.873-1.679,8.269,0.972,9.963c6.451,4.121,15.78-13.151,13.354-15.221
			C346.598,96.654,337.704,100.11,334.697,103.983z"/>
		<path style="fill:#407BFF;" d="M361.79,94.761c-4.243-1.711-8.538,0.076-9.882,2.66c-3.271,6.288,11.579,17.621,15.88,9.757
			C370.342,102.509,366.164,96.524,361.79,94.761z"/>
		<path style="fill:#FFC3BD;" d="M359.978,113.973c0.307,8.969,0.629,12.759-3.436,17.767c-6.114,7.533-17.198,5.949-20.178-2.747
			c-2.683-7.828-2.734-21.18,5.653-25.565C350.281,99.107,359.671,105.004,359.978,113.973z"/>
		<path style="fill:#263238;" d="M358.646,118.705c-3.969-1.486-5.005-6.16-4.351-7.956c-1.984-0.083-6.377-0.798-8.021-3.282
			c-3.12,1.962-9.71,3.994-10.427,0.676c-0.717-3.318,9.237-11.895,16.755-12.552c8.937-0.781,17.763,8.01,15.484,16.413
			C365.806,120.407,358.646,118.705,358.646,118.705z"/>
		<path style="fill:#263238;" d="M332.959,202.197c0,0-7.132,69.655-6.54,97.23c0.616,28.682,11.127,94.097,11.127,94.097h12.227
			c0,0-1.935-63.739-0.854-91.908c1.178-30.709,10.933-99.42,10.933-99.42H332.959z"/>
		<polygon style="fill:#407BFF;" points="350.833,393.962 336.487,393.962 335.434,389.386 351.5,388.826 		"/>
		<path style="opacity:0.2;" d="M348.8,219.528c-9.02,18.145-1.811,51.247,1.379,63.562c1.636-18.496,4.393-41.105,6.543-57.708
			C355.355,215.987,352.96,211.162,348.8,219.528z"/>
		<path style="fill:#263238;" d="M342.658,202.197c0,0,8.319,72.415,14.601,95.664c7.459,27.602,53.789,64.748,53.789,64.748
			l9.398-7.983c0,0-33.58-40.351-39.283-54.893c-12.171-31.035-1.753-77.285-11.48-97.536L342.658,202.197z"/>
		<polygon style="fill:#407BFF;" points="421.947,354.197 410.288,364.1 405.933,361.49 419.122,349.222 		"/>
		<path style="fill:#263238;" d="M346.693,117.761c0.07,0.726-0.259,1.352-0.733,1.397s-0.916-0.506-0.985-1.232
			c-0.07-0.726,0.259-1.352,0.733-1.397C346.182,116.484,346.623,117.035,346.693,117.761z"/>
		<path style="fill:#263238;" d="M338.486,118.548c0.07,0.726-0.259,1.351-0.733,1.397c-0.475,0.046-0.916-0.506-0.985-1.232
			c-0.07-0.726,0.259-1.352,0.733-1.397C337.975,117.271,338.417,117.822,338.486,118.548z"/>
		<path style="fill:#263238;" d="M337.714,117.336l-1.792-0.335C335.922,117.001,336.948,118.277,337.714,117.336z"/>
		<path style="fill:#ED847E;" d="M340.775,119.588c0,0-0.932,3.244-2.144,4.882c1.044,0.803,2.635,0.238,2.635,0.238
			L340.775,119.588z"/>
		<path style="fill:#263238;" d="M345.302,127.1c-0.37,0.103-0.772,0.18-1.208,0.222c-0.118,0.011-0.222-0.075-0.234-0.193
			c-0.011-0.117,0.072-0.221,0.193-0.234c3.184-0.303,4.461-2.673,4.474-2.697c0.055-0.105,0.184-0.146,0.289-0.091
			c0.105,0.055,0.146,0.184,0.091,0.289C348.859,124.488,347.832,126.397,345.302,127.1z"/>
		<path style="fill:#FFC3BD;" d="M362.096,120.211c-0.215,1.848-1.264,3.424-2.478,4.354c-1.826,1.398-3.591-0.029-3.796-2.199
			c-0.185-1.953,0.542-5.033,2.718-5.579C360.684,116.248,362.342,118.098,362.096,120.211z"/>
		<path style="fill:#263238;" d="M347.571,112.616c-0.109,0.03-0.23,0.017-0.335-0.045c-1.638-0.983-3.063-0.311-3.079-0.303
			c-0.211,0.1-0.469,0.015-0.573-0.198c-0.103-0.213-0.015-0.469,0.198-0.573c0.074-0.036,1.862-0.881,3.895,0.339
			c0.203,0.122,0.268,0.385,0.147,0.588C347.764,112.522,347.673,112.588,347.571,112.616z"/>
		<path style="fill:#263238;" d="M334.471,115.11c-0.103,0.029-0.216,0.019-0.317-0.035c-0.208-0.112-0.287-0.372-0.176-0.58
			c1.119-2.088,3.087-2.281,3.171-2.288c0.236-0.02,0.443,0.154,0.463,0.39c0.02,0.235-0.154,0.442-0.389,0.464
			c-0.077,0.006-1.601,0.178-2.49,1.839C334.677,115.007,334.58,115.08,334.471,115.11z"/>
		<path style="fill:#FFC3BD;" d="M379.943,157.114c2.078,5.061,3.782,10.063,5.266,15.261c1.462,5.189,2.735,10.456,3.318,16.039
			c0.172,1.38,0.219,2.825,0.287,4.251l0.006,0.134v0.223l-0.012,0.461c-0.021,0.29-0.047,0.585-0.092,0.848
			c-0.081,0.545-0.203,1.026-0.338,1.482c-0.274,0.905-0.619,1.685-0.984,2.407c-1.478,2.843-3.24,5.001-5.068,7.091
			c-3.707,4.099-7.654,7.651-11.968,10.924l-2.93-3.209c3.333-3.885,6.697-7.88,9.54-11.962c1.399-2.024,2.745-4.136,3.504-6.041
			c0.182-0.467,0.317-0.911,0.394-1.268c0.035-0.175,0.058-0.334,0.056-0.44c0.006-0.061-0.004-0.094-0.004-0.13
			c-0.001-0.016-0.009-0.02-0.01-0.03l-0.015-0.133c-0.13-1.186-0.225-2.358-0.448-3.57c-0.75-4.818-2.119-9.731-3.585-14.594
			c-1.531-4.836-3.239-9.753-5.038-14.426L379.943,157.114z"/>
		<g>
			<path style="fill:#407BFF;" d="M376.194,147.359c3.679,1.119,8.098,13.788,8.098,13.788l-14.275,10.206
				c0,0-5.206-10.576-3.66-15.332C367.968,151.069,371.995,146.083,376.194,147.359z"/>
			<path style="opacity:0.4;" d="M376.194,147.359c3.679,1.119,8.098,13.788,8.098,13.788l-14.275,10.206
				c0,0-5.206-10.576-3.66-15.332C367.968,151.069,371.995,146.083,376.194,147.359z"/>
		</g>
		<path style="fill:#407BFF;" d="M417.343,373.27c-0.354,0-0.675-0.164-0.956-0.489c-0.239-0.276-0.226-0.542-0.173-0.717
			c0.334-1.105,3.475-2.007,3.832-2.106c0.081-0.023,0.17,0.005,0.224,0.072c0.053,0.066,0.063,0.159,0.023,0.234
			c-0.561,1.064-1.674,2.869-2.816,2.999C417.432,373.268,417.388,373.27,417.343,373.27z M419.664,370.519
			c-1.246,0.397-2.864,1.087-3.039,1.669c-0.022,0.073-0.032,0.175,0.087,0.313c0.221,0.256,0.458,0.365,0.718,0.336
			C418.045,372.767,418.865,371.911,419.664,370.519z"/>
		<path style="fill:#407BFF;" d="M418.671,370.556c-1.043,0-2.215-0.21-2.616-0.732c-0.121-0.158-0.279-0.489,0.024-0.936
			c0.193-0.284,0.466-0.45,0.812-0.495c1.297-0.165,3.271,1.536,3.354,1.609c0.057,0.05,0.084,0.127,0.069,0.202
			c-0.014,0.075-0.068,0.136-0.139,0.162C419.832,370.486,419.273,370.556,418.671,370.556z M417.082,368.81
			c-0.047,0-0.093,0.003-0.137,0.009c-0.222,0.029-0.39,0.13-0.512,0.31c-0.155,0.228-0.102,0.352-0.039,0.434
			c0.387,0.502,2.165,0.694,3.247,0.499C418.994,369.559,417.861,368.81,417.082,368.81z"/>
		<path style="fill:#407BFF;" d="M336.054,406.289c-0.899,0-1.728-0.139-2.193-0.557c-0.295-0.265-0.425-0.616-0.387-1.043
			c0.023-0.255,0.148-0.452,0.363-0.57c1.108-0.608,4.713,1.234,5.12,1.446c0.081,0.042,0.126,0.13,0.113,0.22
			c-0.013,0.09-0.081,0.162-0.17,0.18C338.132,406.118,337.05,406.289,336.054,406.289z M334.443,404.418
			c-0.166,0-0.301,0.024-0.4,0.078c-0.088,0.048-0.132,0.12-0.142,0.232c-0.026,0.289,0.055,0.514,0.247,0.686
			c0.549,0.494,2.037,0.581,4.04,0.247C336.947,405.065,335.299,404.418,334.443,404.418z"/>
		<path style="fill:#407BFF;" d="M338.858,405.969c-0.03,0-0.06-0.006-0.088-0.019c-1.078-0.487-3.21-2.437-3.043-3.461
			c0.04-0.242,0.211-0.544,0.804-0.604c0.442-0.041,0.838,0.08,1.186,0.369c1.136,0.947,1.345,3.381,1.354,3.484
			c0.006,0.076-0.028,0.149-0.09,0.192C338.945,405.956,338.901,405.969,338.858,405.969z M336.704,402.304
			c-0.043,0-0.086,0.002-0.129,0.007c-0.391,0.04-0.417,0.196-0.425,0.247c-0.1,0.615,1.347,2.149,2.445,2.815
			c-0.105-0.709-0.406-2.169-1.152-2.789C337.219,402.396,336.976,402.304,336.704,402.304z"/>
		<g>
			<path style="fill:#407BFF;" d="M370.234,200.042l0.939,3.287c0.129,0.255-0.173,0.515-0.598,0.515h-37.797
				c-0.331,0-0.605-0.162-0.626-0.37l-0.331-3.287c-0.023-0.228,0.264-0.421,0.626-0.421h37.189
				C369.909,199.766,370.151,199.877,370.234,200.042z"/>
			<path style="opacity:0.3;fill:#FFFFFF;" d="M370.234,200.042l0.939,3.287c0.129,0.255-0.173,0.515-0.598,0.515h-37.797
				c-0.331,0-0.605-0.162-0.626-0.37l-0.331-3.287c-0.023-0.228,0.264-0.421,0.626-0.421h37.189
				C369.909,199.766,370.151,199.877,370.234,200.042z"/>
		</g>
		<path style="fill:#263238;" d="M365.239,204.2h0.996c0.198,0,0.349-0.102,0.336-0.227l-0.467-4.271
			c-0.014-0.125-0.187-0.227-0.385-0.227h-0.996c-0.198,0-0.349,0.102-0.336,0.227l0.467,4.271
			C364.867,204.098,365.041,204.2,365.239,204.2z"/>
		<path style="fill:#263238;" d="M335.577,204.2h0.996c0.198,0,0.349-0.102,0.336-0.227l-0.467-4.271
			c-0.014-0.125-0.187-0.227-0.385-0.227h-0.996c-0.198,0-0.349,0.102-0.336,0.227l0.467,4.271
			C335.205,204.098,335.379,204.2,335.577,204.2z"/>
		<path style="fill:#263238;" d="M350.408,204.2h0.996c0.198,0,0.35-0.102,0.336-0.227l-0.467-4.271
			c-0.014-0.125-0.187-0.227-0.385-0.227h-0.996c-0.198,0-0.349,0.102-0.336,0.227l0.467,4.271
			C350.036,204.098,350.21,204.2,350.408,204.2z"/>
		<path style="fill:#263238;" d="M345.921,116.549l-1.792-0.336C344.129,116.214,345.154,117.49,345.921,116.549z"/>
		<g>
			<path style="opacity:0.2;fill:#407BFF;" d="M312.818,243.895c-47.303,18.383-100.563-5.056-118.95-52.37
				c-18.387-47.314,5.067-100.567,52.37-118.95c47.314-18.388,100.573,5.052,118.961,52.366
				C383.586,172.255,360.132,225.507,312.818,243.895z"/>
			<path style="opacity:0.1;fill:#FFFFFF;" d="M296.186,67.846l-72.076,163.708c-1.115-0.841-2.209-1.711-3.287-2.598
				c-6.873-5.685-12.952-12.412-17.995-20.081l-0.004-0.009l62.254-141.398C275.553,65.782,286.066,65.971,296.186,67.846z"/>
			<path style="opacity:0.1;fill:#FFFFFF;" d="M347.427,96.252L279.66,250.157c-14.198,0.023-28.086-3.27-40.601-9.417
				l73.997-168.07C326.04,77.748,337.848,85.769,347.427,96.252z"/>
			<path style="fill:#407BFF;" d="M203.883,96.318c34.192-41.78,95.784-47.932,137.564-13.741s47.932,95.784,13.741,137.564
				c-34.197,41.787-95.79,47.939-137.57,13.748C175.838,199.697,169.686,138.105,203.883,96.318z M349.004,215.079
				c31.394-38.361,25.753-94.917-12.617-126.318c-38.37-31.401-94.924-25.744-126.318,12.617
				c-31.401,38.37-25.76,94.926,12.61,126.327C261.049,259.107,317.603,253.449,349.004,215.079z"/>
			<path style="fill:#407BFF;" d="M357.628,214.738c9.629,5.75,18.789,12.073,27.79,18.59c8.999,6.52,17.771,13.317,26.406,20.281
				c8.637,6.962,17.096,14.142,25.266,21.673c4.094,3.756,8.097,7.622,12.027,11.578c3.918,3.971,7.777,8.013,11.403,12.34
				c1.998,2.384,1.685,5.935-0.699,7.933c-1.822,1.527-4.338,1.696-6.309,0.63c-4.959-2.699-9.684-5.682-14.352-8.737
				c-4.656-3.069-9.237-6.229-13.728-9.499c-8.999-6.52-17.71-13.391-26.243-20.48c-8.534-7.088-16.932-14.341-25.103-21.873
				c-8.168-7.534-16.178-15.263-23.719-23.564c-2.152-2.369-1.976-6.033,0.393-8.185
				C352.694,213.669,355.496,213.468,357.628,214.738z"/>
		</g>
		<path style="fill:#FFC3BD;" d="M368.387,212.017l-9.658,1.469l6.916,6.06c0,0,5.458-1.98,5.996-5.701L368.387,212.017z"/>
		<polygon style="fill:#FFC3BD;" points="353.514,219.018 359.579,223.778 366.99,218.941 358.729,213.486 		"/>
	</g>
</g>
<g id="Folder">
	<g>
		<path style="fill:#407BFF;" d="M307.839,229.549L307.839,229.549c1.729-4.873,6.585-8.327,11.709-8.327h80.049
			c6.074,0,10.425,4.805,9.719,10.733l-20.673,173.55c-0.706,5.928-6.202,10.733-12.276,10.733H122.344
			c-6.074,0-10.425-4.805-9.719-10.733l17.365-145.776c0.706-5.928,6.202-10.733,12.276-10.733h138.226
			C292.459,248.996,303.801,240.931,307.839,229.549z"/>
		<g>
			<polygon style="fill:#F0F0F0;" points="117.235,408.248 382.637,408.248 397.76,229.667 132.358,229.667 			"/>
			<polygon style="fill:#E0E0E0;" points="117.235,408.248 382.637,408.248 393.58,229.667 132.358,229.667 			"/>
			<polygon style="fill:#F0F0F0;" points="117.235,408.248 382.637,408.248 391.76,224 126.358,224 			"/>
			<polygon style="fill:#E0E0E0;" points="117.235,408.248 382.637,408.248 386.247,224 126.358,224 			"/>
			<polygon style="fill:#F0F0F0;" points="117.235,408.248 382.637,408.248 384.218,219 118.816,219 			"/>
			<polygon style="fill:#E0E0E0;" points="117.235,408.248 382.637,408.248 377.191,222.583 113.497,222.583 			"/>
			<polygon style="fill:#F0F0F0;" points="117.235,408.248 382.637,408.248 374.76,224 109.358,224 			"/>
			<polygon style="fill:#E0E0E0;" points="117.235,408.248 382.637,408.248 370.093,226.778 104.691,226.778 			"/>
			<polygon style="fill:#F0F0F0;" points="117.235,408.248 382.637,408.248 368.093,228.333 102.691,228.333 			"/>
		</g>
		<g>
			<path style="fill:#407BFF;" d="M250.14,240.818L250.14,240.818c0.174-4.993,3.928-8.532,9.051-8.532h80.049
				c6.074,0,11.959,4.924,13.145,10.997l31.624,161.957c1.186,6.074-2.776,10.997-8.85,10.997H121.136
				c-6.074,0-11.959-4.924-13.145-10.997L81.924,271.741c-1.186-6.074,2.776-10.997,8.85-10.997H229
				C240.966,260.744,249.734,252.48,250.14,240.818z"/>
			<path style="opacity:0.2;" d="M250.14,240.818L250.14,240.818c0.174-4.993,3.928-8.532,9.051-8.532h80.049
				c6.074,0,11.959,4.924,13.145,10.997l31.624,161.957c1.186,6.074-2.776,10.997-8.85,10.997H121.136
				c-6.074,0-11.959-4.924-13.145-10.997L81.924,271.741c-1.186-6.074,2.776-10.997,8.85-10.997H229
				C240.966,260.744,249.734,252.48,250.14,240.818z"/>
		</g>
	</g>
</g>
</svg>
